<svg xmlns="http://www.w3.org/2000/svg" width="100.59" height="116" viewBox="0 -1.7 100.59 116"><path fill="#5F1EF4" d="M50.78 49.77c9 0 17.38-.9 25.2-2.66 7.8-1.7 13.96-4.4 18.47-7.8v10.5c0 2.9-1.96 5.5-5.86 8-3.9 2.45-9.3 4.4-16 5.8-6.7 1.44-14 2.15-21.9 2.15s-15.2-.7-21.9-2.15c-6.7-1.4-12.07-3.36-15.97-5.8-3.86-2.48-5.8-5.1-5.8-7.98V39.3c4.5 3.47 10.66 6.1 18.5 7.88 7.8 1.8 16.2 2.7 25.15 2.7zm0 47.65c9 0 17.38-.9 25.2-2.67 7.8-1.78 13.96-4.4 18.47-7.88v10.55c0 2.85-1.96 5.5-5.86 7.94-3.9 2.43-9.3 4.37-16 5.8-6.7 1.42-14 2.14-21.9 2.14s-15.2-.72-21.9-2.15c-6.7-1.42-12.06-3.36-15.96-5.8-3.9-2.43-5.86-5.08-5.86-7.93V86.87c4.5 3.48 10.67 6.1 18.5 7.88 7.8 1.78 16.2 2.67 25.16 2.67zm0-23.83c9 0 17.38-.9 25.2-2.7 7.8-1.8 13.96-4.4 18.47-7.9v10.6c0 2.8-1.96 5.5-5.86 7.9-3.9 2.4-9.3 4.4-16 5.8-6.7 1.4-14 2.1-21.9 2.1s-15.2-.7-21.9-2.14c-6.7-1.4-12.07-3.37-15.97-5.8C8.93 79.06 7 76.4 7 73.56V63c4.5 3.47 10.68 6.1 18.5 7.88 7.8 1.78 16.2 2.67 25.17 2.67zm0-71.5c7.9 0 15.18.7 21.9 2.1 6.7 1.4 12 3.3 15.9 5.8 3.9 2.4 5.87 5.1 5.87 7.9v7.92c0 2.85-1.96 5.5-5.86 7.94-3.9 2.42-9.3 4.36-16 5.8-6.7 1.4-14 2.12-21.9 2.12s-15.2-.7-21.9-2.15c-6.7-1.45-12-3.4-15.9-5.8C9 31.3 7 28.68 7 25.8V18c0-2.84 1.94-5.5 5.85-7.93 3.9-2.44 9.2-4.37 15.9-5.8 6.8-1.43 14.1-2.14 22-2.14z"/></svg>