<svg xmlns="http://www.w3.org/2000/svg" width="121.5" height="116" viewBox="-34 -34 121.5 116"><path fill="#5F1EF4" d="M-28.6-21H82.6v58H-28.6z"/><path fill="#5F1EF4" d="M76.2 56.2h-36C42 64.8 47 70.7 51.8 74.5H58c1.4 0 2.6 1 2.6 2.6s-1.2 3-2.6 3H-4.5C-6 80-7 79-7 77c0-1.4 1-2.5 2.5-2.5h6.3c4.7-3.8 10-9.7 11.4-18.3h-36c-5.7 0-10.3-4.7-10.3-10.5v-60c0-5.7 4-10.4 10-10.4h99c5 0 10 4.7 10 10.4v60c0 5.8-5 10.5-11 10.5zM9.5 74.5H44C39.7 70 36 64 35 56.2H18.5c-1.2 8-5 14-9 18.3zm72-88.8c0-2.8-2.4-5.2-5.3-5.2h-99c-2.8 0-5 2.4-5 5.2v49.6h109v-49.6zm0 54.8H-28v5.2c0 3 2.4 5.3 5.3 5.3h99c3 0 5-2.4 5-5.3v-5.2zm-54.8 8c-1.4 0-2.6-1.3-2.6-2.8 0-1.4 2-2.6 3-2.6 2 0 3 2 3 3 0 2-1 3-2.2 3z"/></svg>