<svg xmlns="http://www.w3.org/2000/svg" width="27.5" height="27.15" viewBox="0 0 27.5 27.15"><g fill="#5F1EF4"><path d="M26.46 0H1.04C.47 0 0 .47 0 1.04v25.08c0 .57.47 1.03 1.04 1.03h25.42c.57 0 1.04-.46 1.04-1.03V1.04C27.5.47 27.03 0 26.46 0zm-1.9 20.55H2.64V2.8h21.94v17.75z"/><circle cx="6.85" cy="7.33" r="3.05"/><path d="M7.44 14.56l-2.86 3.37c-.7.84-.4 1.53.7 1.53h16.38c1.1 0 1.57-.8 1.03-1.75l-4.96-8.8c-.53-.96-1.45-.98-2.04-.05l-2.86 4.58c-.58.95-1.74 1.24-2.58.67-.84-.57-2.1-.35-2.82.5z"/></g></svg>