<svg xmlns="http://www.w3.org/2000/svg" width="512" height="512" viewBox="640 640 512 512"><path fill="#5F1EF4" d="M1105.8 685.92c5.57 4.05 7.85 9.46 6.84 16.2l-64.82 388.92c-.85 4.9-3.55 8.7-8.1 11.4-2.37 1.34-5 2.02-7.86 2.02-1.85 0-3.88-.43-6.07-1.27l-114.7-46.87-61.3 74.7c-3.04 3.87-7.18 5.8-12.4 5.8-2.2 0-4.06-.32-5.58-1-3.2-1.18-5.78-3.17-7.72-5.95-1.93-2.8-2.9-5.88-2.9-9.25v-88.37l218.76-268.14-270.67 234.2-100-41c-6.28-2.38-9.65-7.02-10.16-13.94-.34-6.75 2.36-11.73 8.1-14.94l421.32-243.07c2.53-1.5 5.23-2.27 8.1-2.27 3.38 0 6.42.93 9.12 2.78z"/></svg>